# xmcd
#
# Track frame offsets:
# 150
# 19605
# 38782
# 57635
# 74700
# 92577
# 110820
# 129620
# 147340
# 168222
# 189607
# 208962
# 229770
# 247485
#
# Disc length: 3520 seconds
#
#
# Revision: 2
# Processed by: cddbd v1.5.1PL2 Copyright (c) Steve Scherf et al.
# Submitted via: FreeRIP 2.945 
#
DISCID=dd0dbe0e
DTITLE=Sylvinho - Animal faminto
DYEAR=1900
DGENRE=MPB
TTITLE0=Animal faminto
TTITLE1=Seu melhor amigo
TTITLE2=Só pra meu prazer
TTITLE3=Reluz
TTITLE4=A lua e eu
TTITLE5=Você para mim
TTITLE6=Não se faça de anjo
TTITLE7=Trampolim
TTITLE8=Cançôes de amor
TTITLE9=Tô fora
TTITLE10=Lobo
TTITLE11=Só a lua
TTITLE12=Medo feroz
TTITLE13=Blau-blau
EXTD=
EXTT0=
EXTT1=
EXTT2=
EXTT3=
EXTT4=
EXTT5=
EXTT6=
EXTT7=
EXTT8=
EXTT9=
EXTT10=
EXTT11=
EXTT12=
EXTT13=
PLAYORDER=
